<?xml version="1.0" encoding="UTF-8"?>
<svg version="1.1" xmlns="http://www.w3.org/2000/svg" width="98" height="98">
<path d="M0 0 C1.19521774 -0.00960754 2.39043549 -0.01921509 3.62187195 -0.02911377 C4.91559219 -0.03336365 6.20931244 -0.03761353 7.54223633 -0.04199219 C8.88641867 -0.04774836 10.230601 -0.05350603 11.57478333 -0.05926514 C14.39507427 -0.06976836 17.21533679 -0.0756147 20.03564453 -0.07910156 C23.63223537 -0.08456904 27.22844433 -0.1085619 30.82491589 -0.13707352 C33.60377561 -0.15579513 36.38254535 -0.16091064 39.16146278 -0.16243744 C41.12666343 -0.16690005 43.09181573 -0.18550451 45.05693054 -0.20440674 C54.00850109 -0.18222257 61.54344699 0.51781222 68.18676758 7.16113281 C72.16732576 12.73165899 74.30286055 17.02929497 74.34790039 23.97436523 C74.35750793 25.16958298 74.36711548 26.36480072 74.37701416 27.59623718 C74.38126404 28.88995743 74.38551392 30.18367767 74.38989258 31.51660156 C74.39564875 32.8607839 74.40140642 34.20496623 74.40716553 35.54914856 C74.41766875 38.3694395 74.42351509 41.18970202 74.42700195 44.01000977 C74.43246944 47.6066006 74.45646229 51.20280956 74.48497391 54.79928112 C74.50369552 57.57814084 74.50881103 60.35691059 74.51033783 63.13582802 C74.51480044 65.10102867 74.5334049 67.06618097 74.55230713 69.03129578 C74.53012297 77.98286633 73.83008817 85.51781222 67.18676758 92.16113281 C61.6162414 96.141691 57.31860542 98.27722578 50.37353516 98.32226562 C49.17831741 98.33187317 47.98309967 98.34148071 46.75166321 98.35137939 C45.45794296 98.35562927 44.16422272 98.35987915 42.83129883 98.36425781 C41.48711649 98.37001398 40.14293416 98.37577165 38.79875183 98.38153076 C35.97846089 98.39203398 33.15819837 98.39788032 30.33789062 98.40136719 C26.74129979 98.40683467 23.14509083 98.43082752 19.54861927 98.45933914 C16.76975955 98.47806076 13.9909898 98.48317626 11.21207237 98.48470306 C9.24687172 98.48916568 7.28171942 98.50777014 5.31660461 98.52667236 C-3.63496594 98.5044882 -11.16991183 97.8044534 -17.81323242 91.16113281 C-21.7937906 85.59060663 -23.92932539 81.29297066 -23.97436523 74.34790039 C-23.98397278 73.15268265 -23.99358032 71.9574649 -24.003479 70.72602844 C-24.00772888 69.4323082 -24.01197876 68.13858795 -24.01635742 66.80566406 C-24.02211359 65.46148172 -24.02787126 64.11729939 -24.03363037 62.77311707 C-24.04413359 59.95282612 -24.04997993 57.13256361 -24.0534668 54.31225586 C-24.05893428 50.71566502 -24.08292713 47.11945606 -24.11143875 43.5229845 C-24.13016037 40.74412478 -24.13527587 37.96535504 -24.13680267 35.18643761 C-24.14126529 33.22123696 -24.15986974 31.25608466 -24.17877197 29.29096985 C-24.15658781 20.3393993 -23.45655301 12.8044534 -16.81323242 6.16113281 C-11.24270624 2.18057463 -6.94507027 0.04503984 0 0 Z " fill="#000516" transform="translate(23.813232421875,-0.1611328125)"/>
<path d="M0 0 C1.953125 1.0703125 1.953125 1.0703125 4.953125 3.0703125 C4.37967563 5.93755936 4.0916735 6.931764 1.953125 9.0703125 C-0.73221703 8.78000525 -2.88206341 8.14390409 -5.34765625 7.04296875 C-11.0556389 4.98611248 -18.29425025 5.05679721 -23.984375 7.2578125 C-29.41232123 10.47027047 -34.08502127 14.94345379 -36.046875 21.0703125 C-36.87571472 28.10289193 -37.11192391 35.14995947 -33.40234375 41.390625 C-31.36655955 43.9133547 -29.02223009 45.89977232 -26.4375 47.84375 C-25.97859375 48.24851563 -25.5196875 48.65328125 -25.046875 49.0703125 C-25.046875 49.7303125 -25.046875 50.3903125 -25.046875 51.0703125 C-20.76389969 52.12650253 -16.61701854 52.18733342 -12.234375 52.1328125 C-11.54150391 52.12830078 -10.84863281 52.12378906 -10.13476562 52.11914062 C-8.43876432 52.10744406 -6.74280797 52.08951174 -5.046875 52.0703125 C-4.716875 51.0803125 -4.386875 50.0903125 -4.046875 49.0703125 C-0.85151401 46.65603976 1.94659195 44.6867022 5.953125 44.0703125 C7.953125 47.0703125 7.953125 47.0703125 7.8359375 49.0625 C5.66495935 54.00003437 -0.73089972 56.54392239 -5.484375 58.4453125 C-13.32696868 59.82120613 -20.39554115 59.14023857 -28.046875 57.0703125 C-28.046875 56.4103125 -28.046875 55.7503125 -28.046875 55.0703125 C-28.76875 54.8434375 -29.490625 54.6165625 -30.234375 54.3828125 C-33.64161593 52.79276673 -35.52746512 50.84812339 -38.046875 48.0703125 C-38.748125 47.3278125 -39.449375 46.5853125 -40.171875 45.8203125 C-45.30877095 38.28619843 -46.03523001 30.00992806 -45.046875 21.0703125 C-42.72622631 12.50882326 -37.11880858 5.05969621 -29.85546875 0.078125 C-20.64236257 -5.0557441 -9.41811737 -4.32464573 0 0 Z " fill="#2A79DD" transform="translate(81.046875,20.9296875)"/>
<path d="M0 0 C-0.568225 3.66910998 -1.94379598 5.24478235 -4.625 7.75 C-8.08683154 11.07558772 -11.26242476 14.53035976 -14.390625 18.16796875 C-16.49239542 20.56051809 -18.71440942 22.78366974 -21 25 C-21.33 23.35 -21.66 21.7 -22 20 C-23.32 19.67 -24.64 19.34 -26 19 C-25.72965366 21.43717258 -25.72965366 21.43717258 -25 24 C-24.01 24.66 -23.02 25.32 -22 26 C-24.80362763 26.22732116 -26.46186517 26.34081872 -28.875 24.8125 C-30 23 -30 23 -29.8125 20.4375 C-29 18 -29 18 -27 16 C-25.94039063 15.90332031 -24.88078125 15.80664062 -23.7890625 15.70703125 C-19.01647164 14.81647564 -16.85669265 12.90681629 -13.375 9.6875 C-12.27907125 8.71176155 -11.18272332 7.7364937 -10.0859375 6.76171875 C-9.30621582 6.06054932 -9.30621582 6.06054932 -8.51074219 5.34521484 C-2.50780399 0 -2.50780399 0 0 0 Z " fill="#D2D2D4" transform="translate(91,29)"/>
<path d="M0 0 C2.29141286 -0.05384521 4.58318188 -0.09272087 6.875 -0.125 C8.78925781 -0.15980469 8.78925781 -0.15980469 10.7421875 -0.1953125 C14 0 14 0 16 2 C16 2.99 16 3.98 16 5 C10.39 5 4.78 5 -1 5 C-0.67 3.35 -0.34 1.7 0 0 Z " fill="#021845" transform="translate(16,62)"/>
<path d="M0 0 C6.6 0 13.2 0 20 0 C20.33 0.99 20.66 1.98 21 3 C18.29283758 3.90238747 16.76223232 4.11851302 13.98828125 4.09765625 C12.85229492 4.09282227 12.85229492 4.09282227 11.69335938 4.08789062 C10.90767578 4.07951172 10.12199219 4.07113281 9.3125 4.0625 C8.51521484 4.05798828 7.71792969 4.05347656 6.89648438 4.04882812 C4.93095743 4.0370585 2.96546915 4.01912348 1 4 C0.67 2.68 0.34 1.36 0 0 Z " fill="#144DA8" transform="translate(5,52)"/>
<path d="M0 0 C1.79244141 0.01740234 1.79244141 0.01740234 3.62109375 0.03515625 C5.41740234 0.04869141 5.41740234 0.04869141 7.25 0.0625 C8.17683594 0.07410156 9.10367187 0.08570313 10.05859375 0.09765625 C10.38859375 1.41765625 10.71859375 2.73765625 11.05859375 4.09765625 C8.29407342 5.47991641 6.01245745 5.19291012 2.93359375 5.16015625 C1.83789062 5.15113281 0.7421875 5.14210938 -0.38671875 5.1328125 C-1.65128906 5.11541016 -1.65128906 5.11541016 -2.94140625 5.09765625 C-3.50390625 3.16015625 -3.50390625 3.16015625 -3.94140625 1.09765625 C-2.94140625 0.09765625 -2.94140625 0.09765625 0 0 Z " fill="#0F3B7C" transform="translate(18.94140625,39.90234375)"/>
<path d="M0 0 C-0.51776621 4.10447392 -2.64627444 5.95699523 -5.5625 8.75 C-6.80193359 9.94882812 -6.80193359 9.94882812 -8.06640625 11.171875 C-8.70449219 11.77515625 -9.34257813 12.3784375 -10 13 C-10.99 12.67 -11.98 12.34 -13 12 C-10.3637786 7.57114805 -5.71545008 0 0 0 Z " fill="#F1F1F1" transform="translate(91,29)"/>
<path d="M0 0 C1.258125 -0.020625 2.51625 -0.04125 3.8125 -0.0625 C4.52019531 -0.07410156 5.22789063 -0.08570313 5.95703125 -0.09765625 C8 0 8 0 11 1 C11 1.66 11 2.32 11 3 C8.59454362 4.20272819 7.05003047 4.10071472 4.375 4.0625 C3.14910156 4.04896484 3.14910156 4.04896484 1.8984375 4.03515625 C0.95871094 4.01775391 0.95871094 4.01775391 0 4 C0 2.68 0 1.36 0 0 Z " fill="#0E47B0" transform="translate(15,63)"/>
<path d="M0 0 C3.4374823 -0.02901394 6.87493312 -0.04680335 10.3125 -0.0625 C11.28896484 -0.07087891 12.26542969 -0.07925781 13.27148438 -0.08789062 C14.20927734 -0.09111328 15.14707031 -0.09433594 16.11328125 -0.09765625 C16.97735596 -0.10289307 17.84143066 -0.10812988 18.73168945 -0.11352539 C21 0 21 0 24 1 C24 1.99 24 2.98 24 4 C21.69 4.33 19.38 4.66 17 5 C17.99 4.67 18.98 4.34 20 4 C19.67 3.34 19.34 2.68 19 2 C12.73 1.67 6.46 1.34 0 1 C0 0.67 0 0.34 0 0 Z " fill="#0A306C" transform="translate(6,51)"/>
<path d="M0 0 C6.6 0.33 13.2 0.66 20 1 C16.33236683 3.44508878 14.36568225 3.29885724 10 3.3125 C8.14375 3.33763672 8.14375 3.33763672 6.25 3.36328125 C3 3 3 3 0 0 Z " fill="#053186" transform="translate(56,71)"/>
<path d="M0 0 C1.65 0 3.3 0 5 0 C4.67 1.65 4.34 3.3 4 5 C-2.27 5 -8.54 5 -15 5 C-15 4.67 -15 4.34 -15 4 C-9.72 4 -4.44 4 1 4 C0.67 2.68 0.34 1.36 0 0 Z " fill="#011032" transform="translate(31,63)"/>
<path d="M0 0 C1.65 0.33 3.3 0.66 5 1 C5 3.31 5 5.62 5 8 C3.02 8 1.04 8 -1 8 C-0.34 7.34 0.32 6.68 1 6 C0.67 5.67 0.34 5.34 0 5 C-0.04063832 3.33382885 -0.042721 1.66611905 0 0 Z " fill="#5D5E64" transform="translate(65,48)"/>
<path d="M0 0 C3.63 0 7.26 0 11 0 C11.33 0.99 11.66 1.98 12 3 C8.04 3 4.08 3 0 3 C0 2.01 0 1.02 0 0 Z " fill="#2975E1" transform="translate(5,52)"/>
<path d="M0 0 C3.63 0 7.26 0 11 0 C11 0.99 11 1.98 11 3 C7.37 3 3.74 3 0 3 C0 2.01 0 1.02 0 0 Z " fill="#2468CA" transform="translate(15,41)"/>
<path d="M0 0 C0.33 0.66 0.66 1.32 1 2 C-0.61594832 4.04119788 -2.2856382 6.04072937 -4 8 C-4.66 8 -5.32 8 -6 8 C-6.66 9.32 -7.32 10.64 -8 12 C-8.66 11.67 -9.32 11.34 -10 11 C-8.89718873 9.72799029 -7.79269231 8.45744147 -6.6875 7.1875 C-6.07261719 6.47980469 -5.45773438 5.77210937 -4.82421875 5.04296875 C-3.26665665 3.29863261 -1.67341125 1.63221959 0 0 Z " fill="#353841" transform="translate(90,32)"/>
<path d="M0 0 C-0.3125 1.875 -0.3125 1.875 -1 4 C-3.98646769 5.99097846 -6.59687262 6.94124926 -10 8 C-8.33333333 6.33333333 -6.66666667 4.66666667 -5 3 C-4.443125 2.401875 -3.88625 1.80375 -3.3125 1.1875 C-2 0 -2 0 0 0 Z " fill="#C9C9CB" transform="translate(91,29)"/>
<path d="M0 0 C2.475 0.99 2.475 0.99 5 2 C5 2.99 5 3.98 5 5 C3.02 5 1.04 5 -1 5 C-0.34 4.67 0.32 4.34 1 4 C0.67 2.68 0.34 1.36 0 0 Z " fill="#041A42" transform="translate(29,40)"/>
<path d="M0 0 C1.98 0 3.96 0 6 0 C6.33 0.99 6.66 1.98 7 3 C5.02 3.33 3.04 3.66 1 4 C1.66 3.67 2.32 3.34 3 3 C3 2.34 3 1.68 3 1 C2.01 0.67 1.02 0.34 0 0 Z " fill="#072E77" transform="translate(23,63)"/>
<path d="M0 0 C0.2475 0.598125 0.495 1.19625 0.75 1.8125 C2.16370012 4.28647521 3.65055383 5.43370255 6 7 C3.625 7.125 3.625 7.125 1 7 C0.34 6.34 -0.32 5.68 -1 5 C-0.625 2.375 -0.625 2.375 0 0 Z " fill="#F2F2F2" transform="translate(63,48)"/>
<path d="M0 0 C0.66 0.33 1.32 0.66 2 1 C-0.31 3.31 -2.62 5.62 -5 8 C-5 5 -5 5 -2.5 2.3125 C-1.675 1.549375 -0.85 0.78625 0 0 Z " fill="#3F91D8" transform="translate(48,24)"/>
<path d="M0 0 C0.99 1.32 1.98 2.64 3 4 C2.01 4.66 1.02 5.32 0 6 C0 5.34 0 4.68 0 4 C-1.32 3.67 -2.64 3.34 -4 3 C-2.68 2.01 -1.36 1.02 0 0 Z " fill="#122237" transform="translate(85,27)"/>
</svg>
